<?xml version="1.0" standalone="no"?>
<!DOCTYPE svg PUBLIC "-//W3C//DTD SVG 20010904//EN"
 "http://www.w3.org/TR/2001/REC-SVG-20010904/DTD/svg10.dtd">
<svg version="1.0" xmlns="http://www.w3.org/2000/svg"
 width="600.000000pt" height="600.000000pt" viewBox="0 0 600.000000 600.000000"
 preserveAspectRatio="xMidYMid meet">
<metadata>
Created by potrace 1.11, written by Peter Selinger 2001-2013
</metadata>
<g transform="translate(0.000000,600.000000) scale(0.100000,-0.100000)"
fill="#000000" stroke="none">
<path d="M0 3000 l0 -3000 3000 0 3000 0 0 3000 0 3000 -3000 0 -3000 0 0
-3000z m3398 198 l-4 -793 -26 -97 c-38 -137 -88 -228 -173 -314 -81 -82 -179
-136 -290 -159 -94 -20 -297 -18 -400 3 l-80 17 3 78 c7 148 26 168 137 142
137 -31 279 -12 371 50 74 51 115 114 150 230 17 55 18 126 21 848 l4 787 145
0 145 0 -3 -792z"/>
</g>
</svg>
